<svg viewBox="0 0 453 77" xmlns="http://www.w3.org/2000/svg" xmlns:xlink="http://www.w3.org/1999/xlink"><defs><path d="M16.236 5.752v-2.9c0-.582-.48-1.055-1.074-1.055H1.074C.48 1.797 0 2.27 0 2.852v56.55c0 .584.48 1.058 1.074 1.058H15.84c.593 0 1.072-.474 1.072-1.057V31.618c0-4.02.406-8.538 3.41-11.582 2.774-2.914 6.836-3.898 13.294-3.182.305.036.607-.063.84-.261.226-.199.358-.487.358-.786V1.752a1.06 1.06 0 0 0-.905-1.04A23.88 23.88 0 0 0 30.2.416c-5.356 0-10.221 1.876-13.965 5.336z" id="a"/><path d="M.255 31.185c0 16.865 13.82 30.585 30.809 30.585 13.096 0 23.58-6.423 28.044-17.182a1.035 1.035 0 0 0-.105-.986c-.2-.29-.537-.463-.895-.463H41.079c-.287 0-.562.112-.762.31-2.301 2.243-5.628 3.478-9.362 3.478-6.072 0-10.962-3.446-13.052-9.087h42.31c.557 0 1.025-.413 1.078-.957 1.063-11.116-1.706-20.555-8.007-27.297C47.732 3.638 39.84.364 31.064.364 14.076.364.255 14.189.255 31.185zm30.7-15.977c6.141 0 11.023 3.283 13.041 8.658H18.194c2.283-5.377 7.055-8.658 12.761-8.658z" id="c"/><path d="M16.302 5.703V2.851c0-.581-.472-1.052-1.057-1.052H1.348c-.584 0-1.056.47-1.056 1.052v56.552c0 .583.472 1.053 1.056 1.053h14.553c.584 0 1.058-.47 1.058-1.053V26.342c0-5.875 4.197-10.14 9.98-10.14 8.29 0 9.526 6.354 9.526 10.14v33.06c0 .584.473 1.054 1.056 1.054h14.558c.585 0 1.06-.47 1.06-1.053V26.342C53.14 10.803 43.8.364 29.91.364c-5.179 0-9.835 1.836-13.607 5.34z" id="e"/><path d="M8.014 0C7.42 0 6.94.469 6.94 1.045v13.232H1.082c-.594 0-1.076.467-1.076 1.043v12.74c0 .578.482 1.046 1.076 1.046H6.94v18.677c0 15.51 8.668 24.773 23.189 24.773 1.238 0 2.53-.069 3.842-.204.547-.057.963-.505.963-1.041V58.23c0-.29-.124-.564-.34-.762a1.085 1.085 0 0 0-.801-.282c-6.93.42-9.931-2.289-9.931-9.3v-18.78h9.335c.593 0 1.073-.47 1.073-1.046V15.32c0-.577-.48-1.044-1.073-1.044h-9.335V1.045C23.862.47 23.382 0 22.788 0H8.014z" id="g"/><path d="M.523 31.18c0 17.439 13.339 30.587 31.024 30.587 14.719 0 25.588-7.929 29.073-21.21.082-.316.011-.65-.192-.906a1.087 1.087 0 0 0-.853-.408H43.712c-.42 0-.8.234-.977.6-1.904 3.912-6.503 6.643-11.189 6.643-7.6 0-13.786-6.816-13.786-15.198 0-8.559 6.185-15.519 13.786-15.519 5.253 0 9.353 3.293 11.084 6.561.187.35.557.57.96.57h15.881c.334 0 .649-.15.857-.41.202-.257.274-.593.189-.91C57.032 8.495 45.932.365 31.548.365 13.861.364.522 13.614.522 31.18z" id="i"/><path d="M.534 31.18c0 17.152 13.28 30.587 30.234 30.587 17.024 0 30.36-13.435 30.36-30.587C61.127 13.9 47.791.364 30.767.364 13.814.364.534 13.899.534 31.18zm17.008.108c0-8.847 5.686-15.519 13.226-15.519 7.533 0 13.212 6.672 13.212 15.519 0 8.605-5.679 15.094-13.212 15.094-7.54 0-13.226-6.489-13.226-15.094z" id="k"/><path d="M48.735 7.806C44.395 2.996 38.272.364 31.35.364c-5.378 0-10.129 1.82-13.894 5.292V2.85c0-.581-.484-1.052-1.083-1.052H2.063c-.595 0-1.081.47-1.081 1.052v56.552c0 .583.486 1.053 1.081 1.053h14.99c.598 0 1.084-.47 1.084-1.053V26.342c0-5.875 4.23-10.14 10.067-10.14 8.471 0 9.735 6.354 9.735 10.14v33.06c0 .584.484 1.054 1.08 1.054h14.99c.598 0 1.08-.47 1.08-1.053V26.342c0-5.875 4.284-10.14 10.188-10.14 8.794 0 9.742 7.092 9.742 10.14v33.06c0 .584.484 1.054 1.083 1.054h14.863c.597 0 1.081-.47 1.081-1.053V26.342C92.046 10.561 81.98.364 66.4.364c-6.916 0-13.14 2.633-17.665 7.442z" id="m"/><path d="M10.334.594A10.009 10.009 0 0 0 3.447 3.79C1.665 5.718.76 8.206.9 10.796 1.176 15.956 5.54 20 10.833 20c.173 0 .347-.003.523-.013 5.481-.284 9.712-4.86 9.424-10.2-.27-5.162-4.626-9.204-9.94-9.204-.169 0-.337.003-.506.011z" id="o"/><path d="M.37 4.985c0 2.865 2.668 4.713 5.656 4.713 2.991 0 5.653-1.848 5.653-4.713 0-2.852-2.662-4.686-5.653-4.686C3.038.299.37 2.134.37 4.985zm1.505 0c0-2.136 1.84-3.681 4.15-3.681 2.284 0 4.154 1.545 4.154 3.681 0 2.15-1.87 3.708-4.153 3.708-2.311 0-4.15-1.558-4.15-3.708zm1.958-2.639v5.266h1.22V5.363h.767l1.503 2.248h1.281l-1.65-2.299c.913-.063 1.62-.44 1.62-1.407 0-1.143-.868-1.558-2.415-1.558H3.833zm1.22.817h1.033c.559 0 1.267.09 1.267.655 0 .639-.518.727-1.207.727H5.054V3.163z" id="q"/></defs><g fill="none" fill-rule="evenodd"><g transform="translate(0 12)"><mask id="b" fill="#fff"><use xlink:href="#a"/></mask><path fill="#FFF" mask="url(#b)" d="M-15.652 76.208h66.116v-91.544h-66.116z"/></g><g transform="translate(36 12)"><mask id="d" fill="#fff"><use xlink:href="#c"/></mask><path fill="#FFF" mask="url(#d)" d="M-15.493 77.522h92.756v-92.906h-92.756z"/></g><g transform="translate(102 12)"><mask id="f" fill="#fff"><use xlink:href="#e"/></mask><path fill="#FFF" mask="url(#f)" d="M-15.139 76.207h83.705v-91.593h-83.705z"/></g><g transform="translate(162)"><mask id="h" fill="#fff"><use xlink:href="#g"/></mask><path fill="#FFF" mask="url(#h)" d="M-15.646 88.183h66.23V-15.623h-66.23z"/></g><g transform="translate(220 12)"><mask id="j" fill="#fff"><use xlink:href="#i"/></mask><path fill="#FFF" mask="url(#j)" d="M-15.227 77.517h91.632v-92.903h-91.632z"/></g><g transform="translate(283 12)"><mask id="l" fill="#fff"><use xlink:href="#k"/></mask><path fill="#FFF" mask="url(#l)" d="M-15.216 77.517H76.88v-92.903h-92.095z"/></g><g transform="translate(351 12)"><mask id="n" fill="#fff"><use xlink:href="#m"/></mask><path fill="#FFF" mask="url(#n)" d="M-14.78 76.207h122.587v-91.593H-14.78z"/></g><g transform="translate(201 57)"><mask id="p" fill="#fff"><use xlink:href="#o"/></mask><path fill="#FFF" mask="url(#p)" d="M-15.269 36.154H36.95v-51.726H-15.27z"/></g><g transform="translate(441 12)"><mask id="r" fill="#fff"><use xlink:href="#q"/></mask><path fill="#FFF" mask="url(#r)" d="M-16.77 24.698h45.594v-39.399h-45.595z"/></g></g></svg>
