<svg xmlns="http://www.w3.org/2000/svg" viewBox="0 0 16 17"><g fill-rule="evenodd"><path d="M14.297 11.287l-6.579 3.627-6.332-3.491a.934.934 0 0 0-.903 1.636l6.784 3.74a.936.936 0 0 0 .903 0l7.03-3.875a.934.934 0 1 0-.903-1.637"/><path d="M14.297 7.613l-6.579 3.626-6.332-3.49a.934.934 0 1 0-.903 1.636l6.784 3.74a.936.936 0 0 0 .903 0l7.03-3.876a.934.934 0 1 0-.903-1.636"/><path d="M7.964 2.024l4.848 2.673-5.094 2.808L2.87 4.833l5.094-2.809zM.484 5.651l6.783 3.74a.936.936 0 0 0 .903 0l7.03-3.875a.935.935 0 0 0 0-1.637L8.414.14a.935.935 0 0 0-.902 0L.483 4.014a.935.935 0 0 0 0 1.637z"/></g></svg>
