<svg xmlns="http://www.w3.org/2000/svg" xmlns:xlink="http://www.w3.org/1999/xlink" viewBox="0 0 24 24"><defs><path id="a" d="M11.617 19.26c-4.252 0-7.694-3.467-7.694-7.694 0-4.252 3.467-7.694 7.694-7.694 4.252 0 7.694 3.468 7.694 7.694.026 4.253-3.442 7.695-7.694 7.695zm9.542-8.782c-.481-4.429-4.024-7.947-8.454-8.453V0h-1.898v2c-4.556.38-8.2 3.973-8.732 8.478H0v1.898h2.05c.405 4.657 4.1 8.378 8.757 8.758v2.05h1.898v-2.076c4.53-.506 8.1-4.176 8.48-8.732h1.999v-1.898h-2.025zm-9.542-2.86a3.953 3.953 0 0 0-3.948 3.948 3.953 3.953 0 0 0 3.948 3.949 3.953 3.953 0 0 0 3.948-3.949 3.953 3.953 0 0 0-3.948-3.948z"/></defs><use fill-rule="evenodd" xlink:href="#a"/></svg>