<svg xmlns="http://www.w3.org/2000/svg" viewBox="0 0 24 24"><path d="M6.666 5.256c-2.94 0-5.3 2.41-5.3 5.41s5.3 10.327 5.3 10.327 5.302-7.328 5.302-10.327c0-3-2.362-5.41-5.302-5.41zm0 7.869c-1.349 0-2.41-1.082-2.41-2.46 0-1.376 1.061-2.458 2.41-2.458 1.35 0 2.41 1.082 2.41 2.459s-1.06 2.459-2.41 2.459zM17.896 1c-1.65 0-2.976 1.353-2.976 3.037s2.976 5.797 2.976 5.797 2.975-4.113 2.975-5.797C20.871 2.353 19.546 1 17.896 1zm0 4.417c-.758 0-1.353-.607-1.353-1.38 0-.773.595-1.38 1.353-1.38.757 0 1.352.607 1.352 1.38 0 .773-.595 1.38-1.352 1.38z"/><path d="M6.579 22.252c.256 0 .577.008 1.025.022l.034-1.063c-.458-.015-.79-.023-1.06-.023v1.064zm2.065.06l1.045.036.033-1.063-1.04-.036-.038 1.063zm2.092.064c.36.008.709.013 1.05.015l.007-1.063c-.336-.003-.68-.008-1.035-.016l-.022 1.064zm2.102.014c.36-.004.712-.011 1.054-.023l-.034-1.063c-.334.011-.678.018-1.03.022l.01 1.064zm2.111-.072c.365-.022.717-.05 1.058-.083l-.099-1.059a28.88 28.88 0 0 1-1.021.08l.062 1.062zm2.12-.21a17.04 17.04 0 0 0 1.06-.185l-.21-1.042c-.312.065-.644.123-.995.174l.146 1.053zm2.134-.46a7.76 7.76 0 0 0 1.046-.4l-.441-.965c-.268.128-.57.244-.907.348l.302 1.018zm2.054-1.034c.35-.294.617-.63.794-1.01l-.941-.457a1.9 1.9 0 0 1-.516.646l.663.821zm.997-2.473c-.08-.431-.287-.828-.604-1.195l-.782.704c.2.232.32.46.362.69l1.024-.199zm-1.524-1.99a9.373 9.373 0 0 0-.956-.565l-.474.948c.325.169.607.334.85.5l.58-.884zm-2.009-1.067a56.23 56.23 0 0 0-.971-.417l-.396.985c.413.173.68.287.951.407l.416-.975zm-1.858-.79a18.92 18.92 0 0 1-.927-.423l-.455.957c.279.138.59.28.977.446l.405-.98zm-1.792-.93c-.273-.204-.404-.375-.425-.503l-1.029.172c.073.456.367.838.84 1.19l.614-.86zm.056-1.289c.23-.279.453-.537.671-.774l-.76-.728a19.04 19.04 0 0 0-.71.82l.8.682zm1.385-1.492a7.61 7.61 0 0 1 .761-.622l-.593-.876c-.282.2-.57.435-.867.708l.699.79zm1.603-1.09l.098-.036-.33-1.01-.137.05.37.996z"/></svg>