<svg xmlns="http://www.w3.org/2000/svg" xmlns:xlink="http://www.w3.org/1999/xlink" viewBox="0 0 24 24"><defs><path id="a" d="M19.009 4.945H4V3h15.009z"/><path id="b" d="M5 6v15.407h5.333V17.85h2.37v3.556h5.333V6H5zm4.148 10.666h-2.37v-2.37h2.37v2.37zm0-3.555h-2.37v-2.37h2.37v2.37zm0-3.556h-2.37v-2.37h2.37v2.37zm3.555 7.111h-2.37v-2.37h2.37v2.37zm0-3.555h-2.37v-2.37h2.37v2.37zm0-3.556h-2.37v-2.37h2.37v2.37zm3.556 7.111h-2.37v-2.37h2.37v2.37zm0-3.555h-2.37v-2.37h2.37v2.37zm0-3.556h-2.37v-2.37h2.37v2.37z"/></defs><use xlink:href="#a"/><use xlink:href="#b"/></svg>
