<svg xmlns="http://www.w3.org/2000/svg" viewBox="0 0 24 24"><path fill-rule="evenodd" d="M19.984 17.953c-.53-2.75-4.344-3.473-5.66-4.174-.707-.378-.33-1.085 0-1.415.425-.424.944-1.886.944-1.886.849-.378.47-2.83.47-2.83s-.181-4.244-3.771-4.244c-3.591 0-3.773 4.244-3.773 4.244s-.377 2.452.472 2.83c0 0 .519 1.462.943 1.886.33.33.707 1.037 0 1.415-1.397.745-5.546.944-5.65 4.127A9.918 9.918 0 0 1 2 11.989c0-5.507 4.483-9.99 9.99-9.99 5.508 0 9.99 4.483 9.99 9.99a9.922 9.922 0 0 1-1.995 5.964M11.989 0C5.378 0-.001 5.378-.001 11.989c0 6.612 5.379 11.99 11.99 11.99 6.612 0 11.99-5.378 11.99-11.99 0-6.611-5.378-11.99-11.99-11.99"/></svg>