<svg xmlns="http://www.w3.org/2000/svg" viewBox="0 0 29 24"><path d="M22.362 9.617a5.36 5.36 0 0 0-1.896.351L18.85 7.3l.491-1.194h.211c.421 0 .702-.28.702-.702 0-.421-.28-.702-.702-.702h-2.106c-.422 0-.702.281-.702.702 0 .422.28.702.702.702h.35l-.28.702h-6.39V4h-3.51v1.404h2.106V7.37L8.46 9.898c-.492-.21-.983-.281-1.545-.281A4.885 4.885 0 0 0 2 14.532a4.885 4.885 0 0 0 4.915 4.915 4.885 4.885 0 0 0 4.915-4.915c0-1.685-.843-3.16-2.107-4.002l.843-1.615 4.423 6.39h2.528c.351 2.386 2.387 4.212 4.845 4.212a4.885 4.885 0 0 0 4.914-4.915c0-2.808-2.176-4.985-4.914-4.985zm-11.937 4.915a3.477 3.477 0 0 1-3.51 3.51 3.477 3.477 0 0 1-3.51-3.51 3.477 3.477 0 0 1 3.51-3.51c.28 0 .632.07.913.14L6.283 14.25c-.07.07-.07.14-.07.28 0 .422.28.703.702.703.28 0 .491-.14.632-.421l1.544-3.09c.773.702 1.334 1.685 1.334 2.809zm8.847-3.792a5.09 5.09 0 0 0-1.755 3.09h-1.124l1.826-4.845 1.053 1.755zm.702 1.194l1.124 1.896H18.92c.14-.773.562-1.405 1.053-1.896zm-4.844 1.123l-3.37-4.844h5.265l-1.895 4.844zm7.232 4.985c-1.686 0-3.09-1.193-3.44-2.808h3.44c.42 0 .702-.28.702-.702 0-.14-.07-.281-.14-.351l-1.756-2.95a3.28 3.28 0 0 1 1.194-.21 3.477 3.477 0 0 1 3.51 3.51 3.477 3.477 0 0 1-3.51 3.511z"/></svg>
