<svg xmlns="http://www.w3.org/2000/svg" viewBox="0 0 20 21"><g fill="#777"><path d="M19.993 5.287a3.176 3.176 0 0 0-2.328-3.055v.943a1.59 1.59 0 0 1-1.587 1.587h-.397a1.59 1.59 0 0 1-1.587-1.587V2.114H5.907v1.061a1.59 1.59 0 0 1-1.588 1.587h-.397a1.59 1.59 0 0 1-1.587-1.587V2.23A3.177 3.177 0 0 0 .007 5.288v11.994a3.177 3.177 0 0 0 3.173 3.174h13.64a3.177 3.177 0 0 0 3.173-3.174V5.288zm-1.408 11.994c0 .973-.792 1.765-1.765 1.765H3.18a1.767 1.767 0 0 1-1.765-1.765v-9.76h17.17v9.76z"/><path d="M4.32 4.167a.993.993 0 0 0 .991-.992V.992A.993.993 0 0 0 4.32 0h-.397a.993.993 0 0 0-.992.992v2.183c0 .547.445.992.992.992h.397zm11.758 0a.993.993 0 0 0 .992-.992V.992A.993.993 0 0 0 16.078 0h-.397a.993.993 0 0 0-.992.992v2.183c0 .547.445.992.992.992h.397zM3.063 8.639h2.94v2.352h-2.94zm3.645 0h2.94v2.352h-2.94zm3.645 0h2.94v2.352h-2.94zm3.645 0h2.94v2.352h-2.94zM3.063 11.696h2.94v2.352h-2.94zm3.645 0h2.94v2.352h-2.94zm3.645 0h2.94v2.352h-2.94zm3.645 0h2.94v2.352h-2.94zM3.063 14.753h2.94v2.352h-2.94zm3.645 0h2.94v2.352h-2.94zm3.645 0h2.94v2.352h-2.94zm3.645 0h2.94v2.352h-2.94z"/></g></svg>
