<svg xmlns="http://www.w3.org/2000/svg" viewBox="0 0 24 24"><path fill-rule="evenodd" d="M22 7.8h-2.4L19 4.56C18.64 3 17.02 3 16.12 3H8.68c-.9 0-2.52 0-2.88 1.56L5.2 7.8H2.8c-.66 0-1.2.54-1.2 1.2 0 .66.54 1.2 1.2 1.2h1.08c-.3.3-.48.72-.48 1.2v4.8c0 .96.78 1.8 1.8 1.8h.6v1.5c0 .84.66 1.5 1.5 1.5s1.5-.66 1.5-1.5V18H16v1.5c0 .84.66 1.5 1.5 1.5s1.5-.66 1.5-1.5V18h.6c1.02 0 1.8-.84 1.8-1.8v-4.8c0-.48-.18-.9-.48-1.2H22c.66 0 1.2-.54 1.2-1.2 0-.66-.54-1.2-1.2-1.2zm-5.28-2.4l.84 4.2H7.24l.84-4.2h8.64zM7 13.8c-.66 0-1.2-.54-1.2-1.2 0-.66.54-1.2 1.2-1.2.66 0 1.2.54 1.2 1.2 0 .66-.54 1.2-1.2 1.2zm10.8 0c-.66 0-1.2-.54-1.2-1.2 0-.66.54-1.2 1.2-1.2.66 0 1.2.54 1.2 1.2 0 .66-.54 1.2-1.2 1.2z"/></svg>