<svg xmlns="http://www.w3.org/2000/svg" viewBox="0 0 24 24"><path fill-rule="evenodd" d="M14.135 15.228l-2.23-1.183-2.23 1.183.424-2.503-1.803-1.77 2.493-.365 1.116-2.278 1.115 2.278 2.493.365-1.803 1.77.425 2.503zm5.5-5.518c-.938-2.55.215-3.701 1.203-4.731l.842-.875L16.858.026l-.013.013L16.801 0l-.046.047h.083c-.475.506-1.158 1.858-2.37 1.858-1.2 0-2.006-1.35-2.557-1.839V.05l-.008.008C11.9.058 11.9.056 11.9.056V.06c-.552.49-1.356 1.841-2.56 1.841-1.197 0-1.876-1.323-2.353-1.842h.068L7.009.012l-.036.031L6.951.02 2.13 4.098l.842.876c.989 1.03 2.143 2.18 1.203 4.732C3.34 11.97 2 13.278 2 15.07c0 3.201 2.05 5.559 5.625 6.467 2.57.654 2.959.932 4.273 1.999l.005-.003a.063.063 0 0 0 .01.008c1.315-1.066 1.702-1.345 4.273-1.998 3.575-.91 5.624-3.266 5.624-6.47 0-1.79-1.341-3.098-2.174-5.363z"/></svg>