<svg viewBox="0 0 194 194" xmlns="http://www.w3.org/2000/svg"><g fill="none" fill-rule="evenodd"><path d="M.26 193.433h192.756V.677H.26z"/><path fill="#666" d="M26.733 149.231h-7.1v2.811h6.52v2.373h-6.52v3.454h7.415v2.374H16.896v-13.378h9.837v2.366m8.976 7.374l1.342 1.264a3.243 3.243 0 0 1-1.508.357c-1.51 0-3.636-.93-3.636-4.674s2.126-4.673 3.636-4.673c1.508 0 3.632.929 3.632 4.673 0 1.254-.242 2.18-.615 2.873l-1.415-1.322-1.436 1.502zm6.317 3.09l-1.456-1.372c.82-1.045 1.4-2.571 1.4-4.771 0-6.277-4.658-7.039-6.427-7.039-1.769 0-6.426.762-6.426 7.039 0 6.281 4.657 7.041 6.426 7.041.78 0 2.16-.146 3.426-.898l1.586 1.512 1.471-1.512zm13.097-4.13c0 3.515-2.128 5.028-5.499 5.028-1.228 0-3.054-.297-4.247-1.619-.725-.815-1.006-1.905-1.042-3.242v-8.867h2.85v8.677c0 1.869 1.08 2.684 2.382 2.684 1.921 0 2.701-.93 2.701-2.552v-8.809h2.855v8.7m7.485-5.68h.04l1.656 5.29H60.89l1.718-5.29zm-2.464 7.593h4.939l.858 2.765h3.037l-4.711-13.378h-3.225l-4.769 13.378h2.943l.928-2.765zm13.808.343h6.65v2.422h-9.448v-13.378h2.798v10.956m17.246-3.582v6.004h-2.79v-13.378h2.79v5.066h5.218v-5.066h2.791v13.378h-2.791v-6.004h-5.218m13.335-.687c0-3.744 2.128-4.673 3.63-4.673 1.512 0 3.638.929 3.638 4.673 0 3.744-2.126 4.674-3.638 4.674-1.502 0-3.63-.93-3.63-4.674zm-2.791 0c0 6.281 4.66 7.041 6.421 7.041 1.778 0 6.433-.76 6.433-7.041 0-6.277-4.655-7.039-6.433-7.039-1.761 0-6.421.762-6.421 7.039zm26.193 2.013c0 3.515-2.127 5.028-5.5 5.028-1.229 0-3.05-.297-4.247-1.619-.726-.815-1.006-1.905-1.04-3.242v-8.867h2.847v8.677c0 1.869 1.083 2.684 2.39 2.684 1.918 0 2.699-.93 2.699-2.552v-8.809h2.851v8.7m5.114.558c.025.743.401 2.161 2.837 2.161 1.322 0 2.795-.315 2.795-1.737 0-1.039-1.006-1.321-2.419-1.654l-1.435-.338c-2.169-.502-4.253-.979-4.253-3.922 0-1.493.806-4.12 5.145-4.12 4.101 0 5.199 2.68 5.218 4.32h-2.685c-.073-.591-.297-2.012-2.738-2.012-1.059 0-2.327.391-2.327 1.602 0 1.049.859 1.264 1.411 1.395l3.263.8c1.827.449 3.5 1.196 3.5 3.597 0 4.028-4.095 4.378-5.27 4.378-4.878 0-5.717-2.815-5.717-4.47h2.675m10.611 4.119h2.786v-13.377h-2.786zm13.95-13.377h2.604v13.378h-2.79l-5.456-9.543h-.046v9.543h-2.605v-13.378h2.943l5.303 9.316h.047v-9.316m11.956 6.168h5.585v7.21h-1.86l-.28-1.675c-.706.811-1.732 2.025-4.173 2.025-3.221 0-6.144-2.309-6.144-7.003 0-3.647 2.032-7.096 6.535-7.077 4.106 0 5.727 2.661 5.867 4.511h-2.791c0-.524-.954-2.203-2.924-2.203-1.998 0-3.84 1.378-3.84 4.803 0 3.654 1.994 4.602 3.893 4.602.615 0 2.67-.238 3.242-2.943h-3.11v-2.25m-150.47 20.841c0-3.744 2.123-4.678 3.631-4.678 1.508 0 3.63.934 3.63 4.678 0 3.743-2.122 4.68-3.63 4.68s-3.631-.937-3.631-4.68zm-2.795 0c0 6.276 4.657 7.048 6.426 7.048 1.769 0 6.426-.772 6.426-7.048s-4.657-7.039-6.426-7.039c-1.769 0-6.426.763-6.426 7.039zm20.508-.449v-3.934h2.217c1.731 0 2.459.545 2.459 1.85 0 .596 0 2.084-2.089 2.084h-2.587zm0 2.314h3.202c3.597 0 4.265-3.057 4.265-4.268 0-2.624-1.561-4.283-4.153-4.283h-6.107v13.377h2.793v-4.826zm15.05-2.314v-3.934h2.213c1.733 0 2.46.545 2.46 1.85 0 .596 0 2.084-2.083 2.084h-2.59zm0 2.314h3.204c3.594 0 4.266-3.057 4.266-4.268 0-2.624-1.562-4.283-4.153-4.283h-6.112v13.377h2.795v-4.826zm14.458-1.865c0-3.744 2.118-4.678 3.633-4.678 1.503 0 3.63.934 3.63 4.678 0 3.743-2.127 4.68-3.63 4.68-1.515 0-3.633-.937-3.633-4.68zm-2.795 0c0 6.276 4.655 7.048 6.428 7.048 1.765 0 6.421-.772 6.421-7.048s-4.656-7.039-6.421-7.039c-1.773 0-6.428.763-6.428 7.039zm20.455-.801v-3.582h3.478c1.64 0 1.954 1.05 1.954 1.756 0 1.324-.705 1.826-2.159 1.826h-3.273zm-2.746 7.492h2.746v-5.237h2.882c2.07 0 2.183.707 2.183 2.533 0 1.375.106 2.065.293 2.704h3.094v-.361c-.596-.22-.596-.707-.596-2.656 0-2.505-.595-2.91-1.693-3.397 1.321-.443 2.064-1.712 2.064-3.181 0-1.158-.648-3.782-4.206-3.782h-6.767v13.377zm21.384 0h-2.793v-11.012h-4.04v-2.365h10.879v2.365h-4.046v11.012m19.039-4.682c0 3.52-2.123 5.039-5.497 5.039-1.223 0-3.049-.309-4.245-1.631-.727-.815-1.006-1.898-1.04-3.237v-8.866h2.846v8.676c0 1.865 1.083 2.69 2.386 2.69 1.918 0 2.699-.937 2.699-2.558v-8.808h2.851v8.695m13.522-8.695h2.613v13.377h-2.8l-5.459-9.542h-.029v9.542h-2.615v-13.377h2.943l5.314 9.311h.033v-9.311m7.693 13.377h2.803v-13.377h-2.803zm13.711 0h-2.794v-11.012h-4.035v-2.365h10.874v2.365h-4.045v11.012m14.607 0h-2.798v-5.051l-4.616-8.326h3.295l2.776 5.813 2.651-5.813h3.162l-4.47 8.36v5.017M95.965 7.519L5.904 51.876v20.835h10.08v62.504h159.283V72.711h12.104V51.876L95.965 7.519zm59.816 108.871H35.475V59.269l60.49-30.914 59.816 30.914v57.121z"/><path fill="#666" d="M67.739 79.426h55.778V59.269H67.739zm0 28.912h55.778v-20.17H67.739z"/></g></svg>
