<svg xmlns="http://www.w3.org/2000/svg" viewBox="0 0 24 24"><g fill-rule="evenodd"><path d="M20.25 24H.75a.752.752 0 0 1-.75-.75V3.75C0 3.337.338 3 .75 3H18c.413 0 .75.337.75.75 0 .412-.337.75-.75.75H1.5v18h18.75a2.257 2.257 0 0 0 2.25-2.25A2.257 2.257 0 0 0 20.25 18a.752.752 0 0 1-.75-.75V.75c0-.412.337-.75.75-.75C22.32 0 24 1.68 24 3.75v12c0 .413-.337.75-.75.75a.752.752 0 0 1-.75-.75v-12A2.26 2.26 0 0 0 21 1.627v14.948A3.75 3.75 0 0 1 20.25 24"/><path d="M14.97 19.5h1.53v-12h-12v12H6v-6.75c0-.412.337-.75.75-.75 3.772 0 7.822 2.85 8.22 7.5m2.28 1.5h-3a.752.752 0 0 1-.75-.75c0-3.848-2.985-6.345-6-6.705v6.705c0 .413-.338.75-.75.75h-3a.752.752 0 0 1-.75-.75V6.75c0-.412.337-.75.75-.75h13.5c.412 0 .75.338.75.75v13.5c0 .413-.338.75-.75.75"/></g></svg>