<svg xmlns="http://www.w3.org/2000/svg" viewBox="0 0 24 24"><path fill-rule="evenodd" d="M7.5 5C5.505 5 4 6.505 4 8.5c0 2.377 2.258 4.547 5.676 7.831.729.7 1.507 1.448 2.324 2.257.817-.809 1.595-1.557 2.324-2.257C17.742 13.047 20 10.877 20 8.5 20 6.505 18.495 5 16.5 5c-1.538 0-3.038.993-3.567 2.361a1 1 0 0 1-1.866 0C10.538 5.993 9.038 5 7.5 5M12 21a1 1 0 0 1-.709-.295c-1.067-1.074-2.074-2.041-3-2.932C4.502 14.133 2 11.729 2 8.5 2 5.416 4.416 3 7.5 3c1.741 0 3.409.808 4.5 2.086C13.091 3.808 14.759 3 16.5 3 19.584 3 22 5.416 22 8.5c0 3.229-2.502 5.633-6.291 9.273-.926.891-1.933 1.858-3 2.932A1 1 0 0 1 12 21"/></svg>