<svg xmlns="http://www.w3.org/2000/svg" viewBox="0 0 24 24"><g fill-rule="evenodd"><path d="M4.953.625h-2.62A2.335 2.335 0 0 0 0 2.958v8.68h4.953V.625zm6.252 0H5.891v7.43l5.314-1.61zM0 21.232a2.335 2.335 0 0 0 2.332 2.332h2.621v-6.227H0v3.895zm13.273-8.68H0v3.847h16.279zM5.891 23.564h5.506v-6.227H5.891zm6.444-6.227v6.227h8.296c.36 0 .721-.096 1.01-.24L17 17.337h-4.665z"/><path d="M19.597 12.311c-.36 0-.697-.192-.842-.529L15.653 5.7c-.529-1.01-.6-2.236-.24-3.367a4.5 4.5 0 0 1 1.034-1.73h-4.304v6.515l-6.252 1.9v2.573h7.839l3.703 4.785h5.506V6.829c-.938 1.851-2.5 4.881-2.525 4.93a.887.887 0 0 1-.817.552m2.789 10.436a2.26 2.26 0 0 0 .553-1.515v-3.895h-4.76l4.207 5.41z"/><path d="M19.597 1.587a2.12 2.12 0 0 1 2.116 2.116 2.104 2.104 0 0 1-2.116 2.116 2.104 2.104 0 0 1-2.116-2.116 2.12 2.12 0 0 1 2.116-2.116m-3.342 3.8l3.101 6.083c.073.12.169.144.217.144.024 0 .072 0 .096-.024.048-.024.096-.048.12-.12.024-.049 2.525-4.93 3.102-6.084a3.718 3.718 0 0 0 0-3.342A3.864 3.864 0 0 0 21.496.529 3.624 3.624 0 0 0 19.573 0c-.553 0-1.13.12-1.66.385a3.681 3.681 0 0 0-1.85 2.164c-.29.962-.241 1.996.192 2.837"/></g></svg>