<svg xmlns="http://www.w3.org/2000/svg" viewBox="0 0 24 24"><path fill-rule="evenodd" d="M7.34 1c-.533 0-1.115.042-1.73.124-2.113.281-3.29.983-3.503 1.12l-.453.291-.226.489c-.193.417-.774 2.038-.138 5.353.5 2.602 1.348 4.648 2.75 6.635.912 1.289 2.159 3.055 3.73 4.326 2.07 1.674 4.038 2.868 5.845 3.548 1.958.737 3.352.891 4.177.891.589 0 .957-.075 1.123-.12l.52-.14.363-.397c.172-.188 1.062-1.227 1.698-3.262.615-1.968.55-3.067.516-3.357l-.086-.725-.557-.471c-.168-.142-1.683-1.401-3.173-1.887-1.365-.445-3.263-.593-3.475-.608l-.822-.059-.594.57c-.02.02-.461.445-.876.884a40.552 40.552 0 0 1-.93-.779c-.62-.54-1.35-1.463-1.84-2.165a9.478 9.478 0 0 1-.107-.183c.534-.35 1.088-.757 1.112-.775l.663-.489.08-.82c.022-.211.198-2.107-.01-3.527-.226-1.551-1.211-3.258-1.322-3.448l-.37-.628-.7-.208C8.82 1.128 8.285 1 7.34 1zm0 1.85c.778 0 1.14.107 1.14.107s.906 1.54 1.087 2.777c.18 1.238 0 3.079 0 3.079s-.574.423-1.087.755-1.358.694-1.358.694.343.953.984 2.006c.403.583 1.289 1.779 2.179 2.554 1.029.894 2.46 1.998 2.46 1.998s.5-.772.915-1.222c.414-.449.927-.943.927-.943s1.846.134 3.035.522 2.553 1.541 2.553 1.541.1.844-.445 2.588c-.545 1.744-1.296 2.565-1.296 2.565s-.21.056-.642.056c-.653 0-1.813-.128-3.525-.772-2.062-.776-4.061-2.226-5.334-3.256-1.365-1.104-2.5-2.706-3.381-3.954-1.328-1.881-2.03-3.753-2.445-5.917-.573-2.988 0-4.228 0-4.228s.936-.601 2.747-.843c.604-.08 1.097-.107 1.486-.107z"/></svg>