<svg xmlns="http://www.w3.org/2000/svg" viewBox="0 0 24 24"><path fill-rule="evenodd" d="M21.166 16.344s-1.51-1.276-2.825-1.705c-1.315-.43-3.356-.578-3.356-.578s-.57.547-1.027 1.044c-.458.498-1.011 1.352-1.011 1.352s-1.585-1.222-2.723-2.21c-.985-.858-1.965-2.182-2.411-2.827-.71-1.165-1.089-2.22-1.089-2.22s.935-.4 1.503-.767c.568-.367 1.202-.835 1.202-.835s.2-2.037 0-3.407c-.2-1.369-1.202-3.072-1.202-3.072s-.902-.267-2.906 0-3.04.932-3.04.932-.633 1.372 0 4.678c.461 2.394 1.237 4.466 2.706 6.547.976 1.38 2.23 3.153 3.74 4.375 1.41 1.14 3.62 2.743 5.902 3.602 3.151 1.185 4.61.792 4.61.792s.832-.908 1.435-2.838c.603-1.93.492-2.863.492-2.863"/></svg>