<svg xmlns="http://www.w3.org/2000/svg" xmlns:xlink="http://www.w3.org/1999/xlink" width="90" height="86" viewBox="0 0 90 86">
    <defs>
        <rect id="a" width="90" height="86" rx="6"/>
    </defs>
    <g fill="none" fill-rule="evenodd">
        <mask id="b" fill="#fff">
            <use xlink:href="#a"/>
        </mask>
        <g fill="#FFF" fill-opacity=".3" fill-rule="nonzero" mask="url(#b)">
            <path d="M113.482 15.645l-.221-.22c-4.102-4.098-10.07-7.876-16.848-10.697A52.718 52.718 0 0 0 92.68 3.33v-.074c-.073-5.422-4.445-9.789-9.873-9.862L56.284-7a13.027 13.027 0 0 0-9.382 3.803L2.67 41.037c-3.561 3.557-3.561 9.347 0 12.904l29.422 29.391c3.56 3.557 9.357 3.557 12.918 0l44.28-44.233a13.136 13.136 0 0 0 2.898-4.416c4.445 1.251 8.768 1.914 12.574 1.889 9.431-.05 12.55-4.17 13.582-6.624 1.007-2.453 1.743-7.58-4.863-14.303zM58.69 40.743c-1.031.564-2.087 1.177-3.143 1.717-1.007.515-1.351.392-1.72-.687a13.2 13.2 0 0 0-3.683-5.52c-.442-.392-.909-.76-1.474-.981-2.014-.785-3.782.515-3.536 2.674.122 1.08.466 2.11.884 3.116.712 1.741 1.473 3.483 1.99 5.299 1.67 5.79-2.015 11.481-7.835 12.045a9.955 9.955 0 0 1-5.968-1.3c-.81-.466-1.425-.417-2.039.27-.614.662-1.301 1.276-1.94 1.914-.565.564-1.179.588-1.743.024-.713-.662-1.4-1.374-2.088-2.06-.59-.614-.54-1.252.05-1.84.466-.467.932-.957 1.399-1.424 1.031-1.054 1.031-1.128.196-2.281-1.08-1.472-2.038-3.018-2.627-4.76-.467-1.349-.344-1.692.884-2.38a98.74 98.74 0 0 1 2.75-1.52c1.081-.565 1.4-.442 1.769.711.614 1.963 1.62 3.705 2.873 5.324.81 1.055 1.817 1.84 3.045 2.33 2.309.908 4.421-.711 4.175-3.164-.073-.834-.319-1.644-.638-2.429-.786-2.012-1.793-3.95-2.309-6.084-.86-3.435-.466-6.575 2.309-9.028 3.144-2.773 6.655-2.944 10.364-1.227 1.523.711 1.523.736 2.701-.442.393-.392.786-.785 1.204-1.177.909-.859 1.203-.859 2.112 0l.81.81c1.867 1.864 1.867 1.864 0 3.753-1.326 1.325-1.326 1.325-.22 2.846a16.064 16.064 0 0 1 2.038 3.778c.27.736.123 1.3-.59 1.693zm52.532-13.739c-.835 1.987-9.75 3.73-23.282-1.913-3.978-1.644-7.662-3.705-10.683-5.913-.098.123-.221.245-.32.368-2.946 2.944-7.76 2.944-10.707 0-2.947-2.944-2.947-7.752 0-10.696s7.76-2.944 10.708 0c1.768 1.766 2.456 4.17 2.136 6.452 2.898 2.06 6.386 3.95 10.094 5.495 1.326.54 2.579 1.03 3.807 1.448l-.147-10.648c.22.098.417.172.638.27 5.796 2.404 11.003 5.692 14.367 9.053l.148.147c3.192 3.214 3.512 5.275 3.241 5.937z"/>
        </g>
    </g>
</svg>
