<svg xmlns="http://www.w3.org/2000/svg" viewBox="0 0 146 24" fill="#FFF" fill-rule="evenodd">
  <path d="M11.285 4.471a7.636 7.636 0 0 0-1.184-.094c-1.71 0-3.265.596-4.46 1.694v-.92a.339.339 0 0 0-.344-.335h-4.5c-.19 0-.343.15-.343.334v17.954c0 .184.153.334.342.334h4.718c.189 0 .342-.15.342-.334v-8.82c0-1.277.13-2.712 1.09-3.678.885-.925 2.183-1.238 4.246-1.01a.348.348 0 0 0 .268-.083.332.332 0 0 0 .114-.25V4.801a.337.337 0 0 0-.289-.33M21.78 9.074c1.95 0 3.5 1.041 4.141 2.748H17.73c.724-1.707 2.24-2.748 4.05-2.748m7.09-1.786C27.105 5.4 24.601 4.36 21.814 4.36c-5.393 0-9.78 4.389-9.78 9.784 0 5.354 4.387 9.71 9.78 9.71 4.158 0 7.486-2.04 8.903-5.455a.33.33 0 0 0-.033-.313.345.345 0 0 0-.285-.147h-5.405a.347.347 0 0 0-.243.098c-.73.712-1.786 1.105-2.972 1.105-1.927 0-3.48-1.094-4.143-2.885H31.07a.34.34 0 0 0 .342-.304c.337-3.529-.542-6.525-2.542-8.666M43.146 4.36c-1.678 0-3.187.583-4.41 1.695V5.15a.339.339 0 0 0-.342-.334H33.89c-.19 0-.343.15-.343.334v17.954c0 .185.153.334.343.334h4.716c.189 0 .343-.15.343-.334V12.608c0-1.865 1.36-3.22 3.234-3.22 2.686 0 3.087 2.018 3.087 3.22v10.496c0 .185.153.334.342.334h4.718c.19 0 .343-.15.343-.334V12.608c0-4.933-3.026-8.247-7.528-8.247M63.004 18.638a.347.347 0 0 0-.255-.09c-2.214.133-3.173-.733-3.173-2.976v-6.01h2.982c.19 0 .343-.15.343-.335V5.15a.339.339 0 0 0-.343-.334h-2.982V.583a.339.339 0 0 0-.343-.335h-4.72c-.19 0-.342.15-.342.335v4.233h-1.872c-.19 0-.343.15-.343.334v4.077c0 .185.153.335.343.335h1.872v5.976c0 4.964 2.769 7.928 7.407 7.928.395 0 .809-.022 1.228-.066a.338.338 0 0 0 .307-.332V18.88a.33.33 0 0 0-.109-.243M89.955 16.833a.345.345 0 0 0-.271-.13h-5.036a.343.343 0 0 0-.31.191c-.604 1.242-2.064 2.108-3.552 2.108-2.413 0-4.376-2.164-4.376-4.824 0-2.717 1.963-4.927 4.376-4.927 1.668 0 2.97 1.046 3.519 2.083.06.111.176.181.304.181h5.042a.347.347 0 0 0 .272-.13.33.33 0 0 0 .06-.288c-1.106-4.155-4.63-6.736-9.197-6.736-5.615 0-9.85 4.206-9.85 9.783 0 5.535 4.235 9.71 9.85 9.71 4.673 0 8.123-2.517 9.23-6.733a.329.329 0 0 0-.061-.288M101.039 18.97c-2.394 0-4.2-2.06-4.2-4.792 0-2.809 1.806-4.927 4.2-4.927 2.391 0 4.194 2.118 4.194 4.927 0 2.732-1.803 4.792-4.194 4.792m0-14.61c-5.383 0-9.598 4.298-9.598 9.784 0 5.445 4.215 9.71 9.598 9.71 5.404 0 9.638-4.265 9.638-9.71 0-5.486-4.234-9.783-9.638-9.783M133.516 4.36c-2.194 0-4.168.836-5.604 2.363-1.376-1.527-3.318-2.362-5.514-2.362-1.706 0-3.213.578-4.408 1.68v-.89a.339.339 0 0 0-.343-.335h-4.539c-.19 0-.343.15-.343.334v17.954c0 .185.154.334.343.334h4.755c.19 0 .343-.15.343-.334V12.608c0-1.865 1.343-3.22 3.194-3.22 2.687 0 3.088 2.018 3.088 3.22v10.496c0 .185.153.334.343.334h4.754c.19 0 .343-.15.343-.334V12.608c0-1.865 1.359-3.22 3.232-3.22 2.789 0 3.09 2.252 3.09 3.22v10.496c0 .185.153.334.343.334h4.715c.19 0 .343-.15.343-.334V12.608c0-5.01-3.193-8.247-8.135-8.247M70.886 20.766c-.086-1.648-1.52-2.927-3.234-2.845a3.093 3.093 0 0 0-2.13.99 2.94 2.94 0 0 0-.79 2.168c.086 1.597 1.437 2.849 3.075 2.849.053 0 .107-.001.161-.004 1.697-.088 3.007-1.505 2.918-3.158M143.428 5.776h.318c.201 0 .352-.029.352-.243 0-.188-.206-.218-.37-.218h-.3v.461zm-.356-.733h.678c.45 0 .704.138.704.52 0 .322-.206.448-.472.469l.48.766h-.373l-.438-.75h-.223v.75h-.356V5.043zm.64 2.116c.665 0 1.21-.52 1.21-1.236a1.2 1.2 0 0 0-1.21-1.227c-.675 0-1.212.515-1.212 1.227 0 .716.537 1.236 1.211 1.236zm0-2.798c.871 0 1.648.611 1.648 1.562 0 .955-.777 1.57-1.649 1.57-.871 0-1.649-.615-1.649-1.57 0-.95.778-1.562 1.65-1.562z"/>
</svg>
