<svg xmlns="http://www.w3.org/2000/svg" viewBox="0 0 24 24"><path d="M23.6 21.2h-.4V9.6a.4.4 0 0 0-.4-.4H22V8a.4.4 0 0 0-.4-.4h-2V5.2h2.8a.4.4 0 0 0 .4-.4V3.2a.4.4 0 0 0-.4-.4h-2.8v-.4a.4.4 0 1 0-.8 0v5.2h-2a.4.4 0 0 0-.4.4v1.2h-.8V8a.4.4 0 0 0-.088-.25L12.4 3.86V3.2a.4.4 0 1 0-.8 0v.66L8.488 7.75A.4.4 0 0 0 8.4 8v1.2h-.8V8a.4.4 0 0 0-.4-.4h-2V5.2H8a.4.4 0 0 0 .4-.4V3.2a.4.4 0 0 0-.4-.4H5.2v-.4a.4.4 0 1 0-.8 0v5.2h-2A.4.4 0 0 0 2 8v1.2h-.8a.4.4 0 0 0-.4.4v11.6H.4a.4.4 0 1 0 0 .8h10v-4.4a.4.4 0 0 1 .4-.4h2.4a.4.4 0 0 1 .4.4V22h10a.4.4 0 1 0 0-.8zm-16-4.8H2.8a.4.4 0 1 1 0-.8h.4v-4.4a.4.4 0 0 1 .4-.4h3.2a.4.4 0 0 1 .4.4v4.4h.4a.4.4 0 1 1 0 .8zm13.6 0h-4.8a.4.4 0 1 1 0-.8h.4v-4.4a.4.4 0 0 1 .4-.4h3.2a.4.4 0 0 1 .4.4v4.4h.4a.4.4 0 1 1 0 .8z"/></svg>