<svg xmlns="http://www.w3.org/2000/svg" viewBox="0 0 24 24"><path d="M20.834 6.708V4.691C20.834 3.345 19.42 2 12.089 2 4.758 2 3.345 3.345 3.345 4.69v2.018A1.35 1.35 0 0 0 2 8.054v1.345c0 .74.605 1.345 1.345 1.345v7.4c0 .739.404 1.412 1.01 1.748v1.278c0 .942.74 1.682 1.68 1.682.942 0 1.682-.74 1.682-1.682v-1.009h8.745v1.009c0 .942.74 1.682 1.681 1.682.942 0 1.682-.74 1.682-1.682v-1.278a2.007 2.007 0 0 0 1.009-1.749v-7.399A1.35 1.35 0 0 0 22.179 9.4V8.054a1.35 1.35 0 0 0-1.345-1.346zM7.38 4.018h9.417c.403 0 .673.269.673.673 0 .403-.27.672-.673.672H7.38c-.404 0-.673-.269-.673-.672 0-.404.27-.673.673-.673zM6.036 18.816A1.35 1.35 0 0 1 4.69 17.47c0-.74.605-1.346 1.345-1.346s1.345.606 1.345 1.346a1.35 1.35 0 0 1-1.345 1.345zm12.107 0a1.35 1.35 0 0 1-1.345-1.345c0-.74.605-1.346 1.345-1.346s1.345.606 1.345 1.346a1.35 1.35 0 0 1-1.345 1.345zm1.345-6.727a2.024 2.024 0 0 1-2.017 2.018H6.708a2.024 2.024 0 0 1-2.017-2.018V8.726c0-1.143.874-2.018 2.017-2.018h10.763c1.143 0 2.017.875 2.017 2.018v3.363z"/></svg>