<svg xmlns="http://www.w3.org/2000/svg" viewBox="0 0 29 24"><path d="M14.266 8.375h1.453v8.719h-1.453zm2.906 0h1.453v8.719h-1.453zm-5.813 0h1.453v8.719h-1.453z"/><path d="M22.258 5.469h-2.906v-.582c0-.871-.872-1.598-1.672-1.598h-5.594c-.8 0-1.453.727-1.453 1.599v.58H7v1.454h1.235l.727 10.68C8.889 18.837 9.906 20 11.142 20h7.483c1.235 0 2.252-1.163 2.252-2.325l.654-10.753h.727V5.469zm-10.172-.582v-.145h5.522s.218.073.218.146v.58h-5.74v-.58zm7.338 12.715c0 .436-.363.945-.799.945h-7.484c-.436 0-.799-.509-.799-.945l-.654-10.68h10.39l-.654 10.68z"/></svg>
