<svg xmlns="http://www.w3.org/2000/svg" viewBox="0 0 24 24"><path d="M13.6 4.3c-.956 0-1.65-.782-1.65-1.65 0-.955.694-1.65 1.65-1.65.954 0 1.649.695 1.649 1.65s-.695 1.65-1.65 1.65zM7 11.854V7.686c0-.174.087-.347.26-.434.608-.521 2.519-1.997 3.213-2.345.782-.434 1.216-.434 2.17-.347.348.087 1.564.26 1.738.521.781 1.39 1.302 3.3 1.302 3.3l2.952 1.736c.174.521-.087 1.042-.434 1.303l-3.647-1.39-.868-2.17-.608 3.994 1.91 3.3 1.997 5.817c-.086.868-1.042 1.129-1.736.694l-1.91-5.47-1.737-2.17-2.344 7.727c-.521.521-1.563.174-1.737-.608l1.563-7.727s.26-1.042.52-2.605c.261-1.129.609-3.473.609-3.473L8.476 8.38l-.087 3.473c-.347.347-.868.347-1.389 0z"/></svg>