<svg viewBox="0 0 30 30" xmlns="http://www.w3.org/2000/svg" xmlns:xlink="http://www.w3.org/1999/xlink"><defs><path id="a" d="M0 0h30v30H0z"/></defs><g fill="none" fill-rule="evenodd"><mask id="b" fill="#fff"><use xlink:href="#a"/></mask><path d="M1.656 0C.74 0 0 .741 0 1.656v26.688C0 29.26.741 30 1.656 30h14.37V18.398h-3.897v-4.54h3.896v-3.34c0-3.875 2.367-5.985 5.823-5.985 1.656 0 3.079.123 3.494.176v4.049h-2.384c-1.88 0-2.245.894-2.245 2.205v2.894h4.496l-.586 4.541h-3.91V30h7.631C29.26 30 30 29.259 30 28.344V1.656C30 .74 29.259 0 28.344 0H1.656z" fill="#666" mask="url(#b)"/><path d="M20.763 30V18.45h3.878l.58-4.52h-4.458v-2.88c0-1.305.362-2.195 2.226-2.195h2.363V4.823c-.411-.055-1.822-.175-3.463-.175-3.427 0-5.773 2.1-5.773 5.958v3.325h-3.862v4.52h3.862V30h4.647z" fill="#FFF"/></g></svg>
