<svg viewBox="0 0 30 30" xmlns="http://www.w3.org/2000/svg"><path d="M22.53 2.012C20.23.67 17.72 0 15 0c-2.722 0-5.231.67-7.53 2.012A14.936 14.936 0 0 0 2.013 7.47C.67 9.769 0 12.279 0 15c0 3.034.826 5.788 2.48 8.261 1.654 2.475 3.822 4.304 6.504 5.489-.052-1.393.033-2.546.254-3.457l1.934-8.165c-.326-.637-.489-1.432-.489-2.382 0-1.107.28-2.032.84-2.774.56-.742 1.244-1.114 2.051-1.114.65 0 1.152.215 1.504.645.352.43.528.97.528 1.621 0 .404-.076.896-.225 1.475-.15.58-.345 1.25-.586 2.012a24.57 24.57 0 0 0-.518 1.826c-.182.794-.032 1.475.45 2.041.481.567 1.12.85 1.914.85 1.393 0 2.536-.775 3.428-2.324.892-1.55 1.338-3.432 1.338-5.645 0-1.706-.55-3.093-1.65-4.16-1.101-1.068-2.635-1.602-4.6-1.602-2.201 0-3.982.706-5.342 2.119-1.36 1.413-2.041 3.102-2.041 5.068 0 1.172.332 2.155.996 2.95.221.26.293.54.215.84-.026.077-.078.273-.156.585-.078.312-.13.514-.157.605-.104.417-.351.548-.742.391-1.003-.417-1.765-1.14-2.285-2.168-.521-1.028-.781-2.22-.781-3.574 0-.872.14-1.745.42-2.617a8.925 8.925 0 0 1 1.308-2.53 10.285 10.285 0 0 1 2.13-2.158c.826-.625 1.832-1.126 3.017-1.504 1.185-.378 2.46-.567 3.828-.567 1.849 0 3.51.41 4.98 1.23 1.472.821 2.595 1.883 3.37 3.185a8.04 8.04 0 0 1 1.162 4.18c0 1.953-.339 3.71-1.016 5.274-.677 1.562-1.634 2.79-2.871 3.681-1.237.892-2.644 1.338-4.219 1.338a4.627 4.627 0 0 1-2.227-.557c-.69-.37-1.165-.81-1.426-1.318a688.164 688.164 0 0 1-1.054 4.12c-.248.926-.756 1.993-1.524 3.204 1.393.417 2.813.625 4.258.625 2.721 0 5.231-.67 7.53-2.011a14.937 14.937 0 0 0 5.458-5.46C29.33 20.23 30 17.72 30 14.999s-.67-5.23-2.012-7.53a14.944 14.944 0 0 0-5.459-5.457z" fill="#666"/></svg>
