<svg viewBox="0 0 30 30" xmlns="http://www.w3.org/2000/svg"><g fill="none" fill-rule="evenodd"><path d="M30 15c0 8.284-6.716 15-15 15-8.284 0-15-6.716-15-15C0 6.716 6.716 0 15 0c8.284 0 15 6.716 15 15" fill="#666"/><path d="M11.66 22c6.794 0 10.508-5.386 10.508-10.056 0-.153-.003-.305-.01-.457A7.343 7.343 0 0 0 24 9.657a7.632 7.632 0 0 1-2.12.557 3.579 3.579 0 0 0 1.623-1.955 7.618 7.618 0 0 1-2.345.858A3.768 3.768 0 0 0 18.463 8c-2.04 0-3.694 1.583-3.694 3.534 0 .277.032.547.096.806-3.07-.148-5.791-1.554-7.612-3.693a3.406 3.406 0 0 0-.5 1.777c0 1.226.652 2.308 1.643 2.941a3.792 3.792 0 0 1-1.673-.442v.045c0 1.712 1.273 3.141 2.962 3.465a3.862 3.862 0 0 1-1.667.06c.47 1.405 1.833 2.427 3.45 2.456A7.624 7.624 0 0 1 6.88 20.46c-.298 0-.592-.016-.881-.048A10.798 10.798 0 0 0 11.66 22" fill="#FFF"/></g></svg>
