<svg width="30" height="30" xmlns="http://www.w3.org/2000/svg"><g fill="none" fill-rule="evenodd"><path d="M30 15c0 8.284-6.716 15-15 15-8.284 0-15-6.716-15-15C0 6.716 6.716 0 15 0c8.284 0 15 6.716 15 15" fill="#666"/><path d="M12.954 17.954v-5.909L18.182 15l-5.228 2.954zm11.628-7.768a2.504 2.504 0 0 0-1.768-1.768C21.254 8 15 8 15 8s-6.254 0-7.814.418c-.86.23-1.538.908-1.768 1.768C5 11.746 5 15 5 15s0 3.254.418 4.814c.23.86.908 1.538 1.768 1.768C8.746 22 15 22 15 22s6.254 0 7.814-.418a2.505 2.505 0 0 0 1.768-1.768C25 18.254 25 15 25 15s0-3.254-.418-4.814z" fill="#FFF"/></g></svg>