<svg xmlns="http://www.w3.org/2000/svg" viewBox="0 0 24 24">
    <g  fill-rule="evenodd">
        <path d="M15.914 16.196a3.563 3.563 0 0 1-2.38-.94l2.474-.47c1.285-.188 2.068-1.033 2.068-2.161 0-1.097-.783-1.942-2.037-2.162l-2.506-.47a3.563 3.563 0 0 1 2.381-.94 3.536 3.536 0 0 1 3.54 3.54c0 1.943-1.566 3.603-3.54 3.603zm-8.52-1.034h-.91a2.547 2.547 0 0 1-2.537-2.537 2.547 2.547 0 0 1 2.538-2.538h.908l8.427 1.598c.47.094 1.003.313 1.003.908 0 .502-.345.815-1.034.909l-8.396 1.66zM3.915 2.788a.28.28 0 0 1 .282-.282h2.6c.783 0 1.19.25 1.378.533H4.198c-.157 0-.282-.126-.282-.25zm19.14 13.659h-.876l-1.88-1.849a4.56 4.56 0 0 0 .439-1.973 4.767 4.767 0 0 0-3.352-4.574l.877-5.138 1.033-.219c1.066-.25 1.786-.908 1.943-1.754l.125-.72L20.143 0l-.156.72c-.063.314-.439.627-.971.721l-3.948.909.282 1.221 1.598-.376-.815 4.605h-.219c-1.504 0-2.913.721-3.822 1.911l-4.166-.783-1.003-4.636H9.65v-.627c0-.689-.501-2.412-2.851-2.412h-2.6c-.846 0-1.535.69-1.535 1.535 0 .846.689 1.535 1.535 1.535H5.67l.971 4.543h-.156a3.784 3.784 0 0 0-3.79 3.79c0 .752.218 1.441.594 2.036l-1.785 1.755H.627a.628.628 0 0 0-.627.626c0 .345.282.627.627.627h3.195a.628.628 0 0 0 .626-.627.628.628 0 0 0-.626-.626h-.533l.878-.846c.657.501 1.44.814 2.349.814h1.003l4.573-.877a4.822 4.822 0 0 0 3.822 1.911c1.504 0 2.82-.689 3.697-1.754l.752.752h-.533a.628.628 0 0 0-.626.626c0 .345.281.627.626.627h3.195a.628.628 0 0 0 .627-.627c0-.344-.25-.626-.595-.626z"/>
        <path d="M7.77 10.777l-.659.657c-.094-.03-.188-.03-.282-.03-.658 0-1.221.532-1.221 1.22 0 .659.532 1.223 1.221 1.223.69 0 1.222-.533 1.222-1.222 0-.094-.031-.188-.031-.282l.313-.313h.69v-1.253H7.768zM5.639 19.454H4.386v1.441H2.38v-1.44H1.128v.626H0v2.882h1.128v.626H2.38v-1.44h2.005v1.44h1.253v-.626h1.159V20.08h-1.16zM9.993 22.743l2.193-2.662h7.393l2.413 2.662H9.993zm13.001-.751l-2.506-2.757a1.218 1.218 0 0 0-.877-.407h-7.456c-.376 0-.69.156-.94.438L8.96 22.023c-.314.376-.376.846-.157 1.284.188.439.626.69 1.096.69h12.218c.47 0 .908-.282 1.096-.721.188-.439.126-.94-.219-1.284z"/>
    </g>
</svg>
