<svg xmlns="http://www.w3.org/2000/svg" viewBox="0 0 24 24">
    <path fill-rule="evenodd" d="M22.172 12.643a.887.887 0 0 1 0 1.774h-.061a7.084 7.084 0 0 1-2.451 4.52l.645 1.29a.887.887 0 0 1-1.587.795l-.556-1.113a7.042 7.042 0 0 1-3.085.716H7.982a7.039 7.039 0 0 1-3.085-.716l-.556 1.113a.887.887 0 0 1-1.587-.794l.646-1.291a7.084 7.084 0 0 1-2.451-4.52H.887a.887.887 0 0 1 0-1.774V4.66a2.663 2.663 0 0 1 2.66-2.66c.832 0 1.601.378 2.109 1.037.014.018.022.037.034.055l.833-.833a.887.887 0 1 1 1.254 1.254L4.923 6.369a.883.883 0 0 1-1.254 0 .887.887 0 0 1 0-1.254l.798-.799a.87.87 0 0 1-.217-.196.888.888 0 0 0-1.59.54v7.983h19.512zM6.835 7.58l.887.887a.887.887 0 1 1-1.254 1.254l-.887-.886A.887.887 0 1 1 6.835 7.58zm1.407.368a.887.887 0 1 1 1.254-1.254l.887.886a.887.887 0 1 1-1.254 1.255l-.887-.887zm1.773-1.774l-.886-.887a.887.887 0 1 1 1.254-1.254l.887.887a.887.887 0 1 1-1.255 1.254z"/>
</svg>
