<svg xmlns="http://www.w3.org/2000/svg" viewBox="0 0 24 24"><path d="M12.49 14.536a1.02 1.02 0 0 1-1.027 1.026 1.02 1.02 0 0 1-1.026-1.026 1.02 1.02 0 0 1 1.026-1.027 1.02 1.02 0 0 1 1.027 1.027m-.158-2.587V4.802a.847.847 0 0 0-.869-.849.86.86 0 0 0-.868.849v7.147c-1.126.375-1.896 1.422-1.896 2.587 0 1.164.77 2.21 1.896 2.586v1.382c0 .474.375.849.868.849a.86.86 0 0 0 .869-.849v-1.382c1.125-.375 1.895-1.422 1.895-2.586a2.804 2.804 0 0 0-1.895-2.587m5.903-3.119a1.02 1.02 0 0 1-1.026 1.026 1.02 1.02 0 0 1-1.027-1.026 1.02 1.02 0 0 1 1.027-1.027c.533 0 1.026.474 1.026 1.027m-.177-2.587V4.802a.847.847 0 0 0-.87-.849.847.847 0 0 0-.868.849v1.441c-1.125.375-1.895 1.422-1.895 2.587 0 1.165.77 2.211 1.895 2.586v7.088c0 .474.375.849.869.849a.847.847 0 0 0 .869-.849v-7.088c1.125-.375 1.895-1.421 1.895-2.586 0-1.165-.77-2.212-1.895-2.587M6.764 8.83a1.02 1.02 0 0 1-1.026 1.026A1.02 1.02 0 0 1 4.71 8.83a1.02 1.02 0 0 1 1.027-1.027A1.02 1.02 0 0 1 6.764 8.83m-.177-2.587V4.802a.847.847 0 0 0-.87-.849.86.86 0 0 0-.868.849v1.441c-1.125.375-1.895 1.422-1.895 2.587 0 1.165.77 2.211 1.895 2.586v7.088c0 .474.375.849.869.849a.86.86 0 0 0 .869-.849v-7.088c1.125-.375 1.895-1.421 1.895-2.586 0-1.165-.77-2.212-1.895-2.587" fill-rule="evenodd"/></svg>